<?xml version="1.0" encoding="utf-8"?>
<!-- Generator: Adobe Illustrator 16.0.0, SVG Export Plug-In . SVG Version: 6.00 Build 0)  -->
<!DOCTYPE svg PUBLIC "-//W3C//DTD SVG 1.1//EN" "http://www.w3.org/Graphics/SVG/1.1/DTD/svg11.dtd">
<svg version="1.1" id="Layer_1" xmlns="http://www.w3.org/2000/svg" xmlns:xlink="http://www.w3.org/1999/xlink" x="0px" y="0px"
	 width="270px" height="270px" viewBox="0 0 270 270" enable-background="new 0 0 270 270" xml:space="preserve">
<g>
	<title>background</title>
	<g id="canvasGrid" display="none">
		<rect display="inline" fill="none" width="270" height="270"/>
	</g>
</g>
<g>
	<title>Layer 1</title>
	<path id="svg_1" fill="none" stroke="#FD7022" stroke-width="14.5" d="M7.25,81.938L81.938,7.25h105.625l74.688,74.688v105.625
		l-74.688,74.688H81.938L7.25,187.563V81.938L7.25,81.938z"/>
	<path id="svg_2" fill="none" stroke="#FD7022" stroke-width="14.5" d="M42.618,91.782L42.618,91.782v-0.015V91.782z M42.625,91.767
		l41.825,41.839l-41.832,41.825l15.379,15.387l57.211-57.219L57.997,76.381L42.625,91.767z M116.738,189.774h104.5v-21.735h-104.5
		V189.774z M148.155,144.479h73.083v-21.736h-73.083V144.479z M116.738,77.439v21.75h104.5v-21.75H116.738z"/>
</g>
</svg>
